<?xml version="1.0" encoding="UTF-8"?>
<svg width="24px" height="24px" viewBox="0 0 24 24" version="1.1" xmlns="http://www.w3.org/2000/svg" xmlns:xlink="http://www.w3.org/1999/xlink">
    <!-- Generator: sketchtool 51.3 (57544) - http://www.bohemiancoding.com/sketch -->
    <title>0A63804A-966B-4253-8610-FBE657D8B600</title>
    <desc>Created with sketchtool.</desc>
    <defs></defs>
    <g id="Page-1" stroke="none" stroke-width="1" fill="none" fill-rule="evenodd">
        <g id="valo_landing" transform="translate(-635.000000, -1571.000000)" fill="#5969D4" fill-rule="nonzero">
            <g id="content" transform="translate(0.000000, 29.000000)">
                <g id="преимущества" transform="translate(0.000000, 985.000000)">
                    <g id="items" transform="translate(635.000000, 120.000000)">
                        <g id="item-5" transform="translate(0.000000, 437.000000)">
                            <g id="icon">
                                <path d="M8.0001,8.0001 L8.0001,18 L2.0001,18 C0.9003,18 0,17.0997 0,15.9999 L0,2.0001 C0,0.9003 0.9003,0 2.0001,0 L18,0 C19.0995,0 20.0001,0.9003 20.0001,2.0001 L20.0001,3.9999 L12,3.9999 C9.7947,3.9999 8.0001,5.7939 8.0001,8.0001 Z M18,9.9999 C15.7938,9.9999 14.0001,11.7939 14.0001,14.0001 L14.0001,21.9999 L12,21.9999 C10.9005,21.9999 9.9999,21.0996 9.9999,20.0001 L9.9999,8.0001 C9.9999,6.9003 10.9005,6 12,6 L20.0001,6 C21.0996,6 21.9999,6.9003 21.9999,8.0001 L21.9999,9.9999 L18,9.9999 Z M24,21.9999 C24,23.0997 23.0997,24 21.9999,24 L18,24 C16.9005,24 15.9999,23.0997 15.9999,21.9999 L15.9999,14.0001 C15.9999,12.9003 16.9005,12 18,12 L21.9999,12 C23.0997,12 24,12.9003 24,14.0001 L24,21.9999 Z" id="adaptive_icon"></path>
                            </g>
                        </g>
                    </g>
                </g>
            </g>
        </g>
    </g>
</svg>