<?xml version="1.0" encoding="UTF-8"?>
<svg width="24px" height="24px" viewBox="0 0 24 24" version="1.1" xmlns="http://www.w3.org/2000/svg" xmlns:xlink="http://www.w3.org/1999/xlink">
    <!-- Generator: sketchtool 51.3 (57544) - http://www.bohemiancoding.com/sketch -->
    <title>BBDF02B7-724C-468F-99E3-FA0D39D49EBF</title>
    <desc>Created with sketchtool.</desc>
    <defs></defs>
    <g id="Page-1" stroke="none" stroke-width="1" fill="none" fill-rule="evenodd">
        <g id="valo_landing" transform="translate(-635.000000, -1353.000000)" fill="#5969D4" fill-rule="nonzero">
            <g id="content" transform="translate(0.000000, 29.000000)">
                <g id="преимущества" transform="translate(0.000000, 985.000000)">
                    <g id="items" transform="translate(635.000000, 120.000000)">
                        <g id="item-4" transform="translate(0.000000, 219.000000)">
                            <g id="icon">
                                <path d="M23.6113594,5.79289736 C23.849625,5.91238179 24,6.15542879 24,6.42186642 C24,6.68830405 23.849625,6.93135104 23.6113594,7.05083547 L12.3144844,12.6758382 C12.215625,12.7252914 12.1078125,12.7499945 12,12.7499945 C11.8921875,12.7499945 11.784375,12.7252914 11.6855156,12.6758382 L0.388640625,7.05083547 C0.150375,6.93135104 0,6.68830405 0,6.42186642 C0,6.15542879 0.150375,5.91238179 0.388640625,5.79289736 L11.6855156,0.0741445675 C11.8832812,-0.0247148558 12.1167188,-0.0247148558 12.3144844,0.0741445675 L23.6113594,5.79289736 Z M23.6113594,17.0429029 C23.849625,17.1623873 24,17.4054343 24,17.6718719 C24,17.9383095 23.849625,18.1813565 23.6113594,18.300841 L12.3144844,23.9258437 C12.215625,23.9752969 12.1078125,24 12,24 C11.8921875,24 11.784375,23.9752969 11.6855156,23.9258437 L0.388640625,18.300841 C0.150375,18.1813565 0,17.9383095 0,17.6718719 C0,17.4054343 0.150375,17.1623873 0.388640625,17.0429029 L3.18328125,15.6455584 L11.0565469,19.5587791 C11.3476875,19.704326 11.6738437,19.7812479 12,19.7812479 C12.3261563,19.7812479 12.6523125,19.704326 12.9434531,19.5587322 L20.7698437,15.6455584 L23.6113594,17.0429029 Z M23.6113594,11.4179001 C23.849625,11.5373845 24,11.7804315 24,12.0468692 C24,12.3133068 23.849625,12.5563538 23.6113594,12.6758382 L12.3144844,18.300841 C12.215625,18.3502941 12.1078125,18.3749973 12,18.3749973 C11.8921875,18.3749973 11.784375,18.3502941 11.6855156,18.300841 L0.388640625,12.6758382 C0.150375,12.5563538 0,12.3133068 0,12.0468692 C0,11.7804315 0.150375,11.5373845 0.388640625,11.4179001 L3.18328125,10.0205557 L11.0565469,13.9337763 C11.3476875,14.0793233 11.6738437,14.1562452 12,14.1562452 C12.3261563,14.1562452 12.6523125,14.0793233 12.9434531,13.9337295 L20.7698437,10.0205557 L23.6113594,11.4179001 Z" id="design_icon"></path>
                            </g>
                        </g>
                    </g>
                </g>
            </g>
        </g>
    </g>
</svg>