<?xml version="1.0" encoding="UTF-8"?>
<svg width="86px" height="86px" viewBox="0 0 86 86" version="1.1" xmlns="http://www.w3.org/2000/svg" xmlns:xlink="http://www.w3.org/1999/xlink">
    <!-- Generator: sketchtool 51.3 (57544) - http://www.bohemiancoding.com/sketch -->
    <title>B9EF0692-8326-4BA2-923D-B46E3D982E7C</title>
    <desc>Created with sketchtool.</desc>
    <defs>
        <rect id="path-1" x="0.810478891" y="0.810478891" width="50" height="50" rx="4.62962963"></rect>
        <filter x="-42.0%" y="-42.0%" width="184.0%" height="184.0%" filterUnits="objectBoundingBox" id="filter-2">
            <feOffset dx="0" dy="0" in="SourceAlpha" result="shadowOffsetOuter1"></feOffset>
            <feGaussianBlur stdDeviation="7" in="shadowOffsetOuter1" result="shadowBlurOuter1"></feGaussianBlur>
            <feColorMatrix values="0 0 0 0 0   0 0 0 0 0   0 0 0 0 0  0 0 0 0.1 0" type="matrix" in="shadowBlurOuter1"></feColorMatrix>
        </filter>
    </defs>
    <g id="Page-1" stroke="none" stroke-width="1" fill="none" fill-rule="evenodd">
        <g id="valo_landing" transform="translate(-344.000000, -1417.000000)" fill-rule="nonzero">
            <g id="content" transform="translate(0.000000, 29.000000)">
                <g id="преимущества" transform="translate(0.000000, 985.000000)">
                    <g id="left_side" transform="translate(135.000000, 120.000000)">
                        <g id="textblock">
                            <g id="element-2" transform="translate(251.230994, 326.230994) rotate(15.000000) translate(-251.230994, -326.230994) translate(225.730994, 300.730994)">
                                <g id="Rectangle-8">
                                    <use fill="black" fill-opacity="1" filter="url(#filter-2)" xlink:href="#path-1"></use>
                                    <use fill="#FFFFFF" xlink:href="#path-1"></use>
                                </g>
                                <path d="M15.6521777,37.923569 C16.4497717,37.923569 17.3041798,39.4159582 17.304092,40.4662076 C17.304092,40.9055812 17.1653495,41.2799055 16.9027924,41.5488478 C16.610555,41.848218 16.1897612,42 15.6522655,42 C15.1146821,42 14.6938005,41.8481288 14.4014752,41.5488478 C14.1388303,41.2799055 14,40.9055812 14,40.4661184 C14,39.415869 14.854496,37.923569 15.6521777,37.923569 Z M16.7728311,30.3578473 L17.3345627,29.7870363 L25.5622585,29.7870363 L20.8867229,34.538054 C20.8259571,34.5998911 20.7512294,34.6456666 20.6689498,34.6712759 L15.806902,36.189096 C15.756059,36.2049791 15.7038988,36.2127422 15.6522655,36.2127422 C15.5145767,36.2127422 15.3799614,36.1578651 15.2796804,36.0559632 C15.1417281,35.9157813 15.0913242,35.7096576 15.1485774,35.5201308 L16.6418159,30.5791402 C16.6670179,30.49562 16.7120653,30.4195951 16.7728311,30.3578473 Z M18.7395504,28.3593396 L24.2630839,22.7465285 L28.376888,26.9269136 L26.967334,28.3593396 L18.7395504,28.3593396 Z M37.1123112,14.1957852 C37.6847559,14.7773932 38,15.5508478 38,16.3737365 C38,17.1913606 37.6887074,17.9602645 37.1231999,18.540534 C37.1196874,18.5442817 37.1161749,18.5480294 37.1124868,18.5517771 L31.8861082,23.8625411 L32.2089919,24.1907329 C32.7954865,24.7865286 32.7955743,25.7565593 32.2090797,26.3530688 L32.096066,26.4678199 C31.8120829,26.7565716 31.434229,26.9155813 31.0322269,26.9155813 C30.6302248,26.9156705 30.2524587,26.7565716 29.9683878,26.4679091 L24.7463997,21.1616067 C24.1598174,20.5656325 24.1598174,19.5956018 24.7464875,18.9995385 L24.85915,18.8847873 C25.1434844,18.595768 25.5213383,18.436669 25.9233404,18.436669 C25.9234282,18.436669 25.923516,18.436669 25.9236038,18.436669 C26.3254303,18.4367583 26.7031963,18.5958572 26.9871795,18.8844304 L27.3104145,19.2128007 L32.5367053,13.9019474 C33.10915,13.3203394 33.8702143,13 34.6799262,13 C35.4895504,13 36.2506147,13.3203394 36.8230594,13.9019474 L37.1123112,14.1957852 Z" id="Combined-Shape" fill="#5969D4"></path>
                            </g>
                        </g>
                    </g>
                </g>
            </g>
        </g>
    </g>
</svg>