<?xml version="1.0" encoding="UTF-8"?>
<svg width="24px" height="13px" viewBox="0 0 24 13" version="1.1" xmlns="http://www.w3.org/2000/svg" xmlns:xlink="http://www.w3.org/1999/xlink">
    <!-- Generator: sketchtool 51.3 (57544) - http://www.bohemiancoding.com/sketch -->
    <title>AECC8E0D-CEC8-4F02-AC10-753F15759CEB</title>
    <desc>Created with sketchtool.</desc>
    <defs></defs>
    <g id="Page-1" stroke="none" stroke-width="1" fill="none" fill-rule="evenodd">
        <g id="valo_landing" transform="translate(-935.000000, -1140.000000)" fill="#5969D4" fill-rule="nonzero">
            <g id="content" transform="translate(0.000000, 29.000000)">
                <g id="преимущества" transform="translate(0.000000, 985.000000)">
                    <g id="items" transform="translate(635.000000, 120.000000)">
                        <g id="item-2" transform="translate(300.000000, 6.000000)">
                            <g id="icon">
                                <path d="M23.8208087,6.01827778 C23.60659,5.77281852 18.4538582,0 12.0000176,0 C5.54617698,0 0.393491995,5.77281852 0.179226475,6.01827778 C-0.0597421583,6.29262593 -0.0597421583,6.70737407 0.179226475,6.98172222 C0.393491995,7.22718148 5.54627073,13 12.0000176,13 C18.4537644,13 23.6065432,7.22718148 23.8208087,6.98172222 C24.0597304,6.70737407 24.0597304,6.29262593 23.8208087,6.01827778 Z M12.0000176,11.5555556 C9.28637828,11.5555556 7.07814498,9.28734444 7.07814498,6.5 C7.07814498,3.71265556 9.28637828,1.44444444 12.0000176,1.44444444 C14.7136569,1.44444444 16.9218902,3.71265556 16.9218902,6.5 C16.9218902,9.28734444 14.7136569,11.5555556 12.0000176,11.5555556 Z M12.7031422,5.05555556 C12.7031422,4.329 13.0542827,3.68983333 13.5884699,3.2967037 C13.1091264,3.04464815 12.5744704,2.88888889 12.0000176,2.88888889 C10.0615966,2.88888889 8.48439429,4.50892963 8.48439429,6.5 C8.48439429,8.49107037 10.0615966,10.1111111 12.0000176,10.1111111 C13.7355167,10.1111111 15.1719535,8.80947407 15.4557346,7.10868889 C14.0398291,7.57692963 12.7031422,6.47698519 12.7031422,5.05555556 Z" id="eye_icon"></path>
                            </g>
                        </g>
                    </g>
                </g>
            </g>
        </g>
    </g>
</svg>