<?xml version="1.0" encoding="UTF-8"?>
<svg width="26px" height="26px" viewBox="0 0 26 26" version="1.1" xmlns="http://www.w3.org/2000/svg" xmlns:xlink="http://www.w3.org/1999/xlink">
    <!-- Generator: sketchtool 51.3 (57544) - http://www.bohemiancoding.com/sketch -->
    <title>3CB6A088-1DA2-4077-878E-DBA4A862D4C8</title>
    <desc>Created with sketchtool.</desc>
    <defs></defs>
    <g id="Page-1" stroke="none" stroke-width="1" fill="none" fill-rule="evenodd">
        <g id="valo_landing" transform="translate(-635.000000, -1134.000000)" fill="#5969D4" fill-rule="nonzero">
            <g id="content" transform="translate(0.000000, 29.000000)">
                <g id="преимущества" transform="translate(0.000000, 985.000000)">
                    <g id="items" transform="translate(635.000000, 120.000000)">
                        <g id="item-1">
                            <g id="icon">
                                <path d="M17.4939423,10.7148438 L8.82859804,10.7148438 L11.2091675,6.14453125 L14.8755341,6.14453125 L17.4939423,10.7148438 Z M8.69371034,12.2382812 L17.9113007,12.2382812 L12.9843292,23.9417725 L8.69371034,12.2382812 Z M0,12.2382812 L7.05561827,12.2382812 L12.108551,25.9803619 L12.099823,26 L0,12.2382812 Z M9.49192811,6.14453125 L7.11135862,10.7148438 L0,10.7148438 L3.45213319,6.14453125 L9.49192811,6.14453125 Z M19.2504578,10.7148438 L16.6320496,6.14453125 L22.5486603,6.14453125 L26,10.7148438 L19.2504578,10.7148438 Z M13.7633057,25.9095459 L19.5845031,12.2382812 L26,12.2382812 L13.7990112,26 L13.7633057,25.9095459 Z M12.2382812,0 L13.7617188,0 L13.7617188,2.28515625 L12.2382812,2.28515625 L12.2382812,0 Z M8.9991913,1.7825012 L10.5226288,3.3059387 L9.44551085,4.38305664 L7.92207335,2.85961914 L8.9991913,1.7825012 Z M17.0625,1.78230284 L18.1396179,2.85942079 L16.6163788,4.38285829 L15.5392609,3.30574034 L17.0625,1.78230284 Z" id="gem_icon"></path>
                            </g>
                        </g>
                    </g>
                </g>
            </g>
        </g>
    </g>
</svg>