<?xml version="1.0" encoding="UTF-8"?>
<svg width="24px" height="24px" viewBox="0 0 24 24" version="1.1" xmlns="http://www.w3.org/2000/svg" xmlns:xlink="http://www.w3.org/1999/xlink">
    <!-- Generator: sketchtool 51.3 (57544) - http://www.bohemiancoding.com/sketch -->
    <title>F06BE617-0B7B-40C0-A5FB-D1DF9BA3D8F6</title>
    <desc>Created with sketchtool.</desc>
    <defs></defs>
    <g id="Page-1" stroke="none" stroke-width="1" fill="none" fill-rule="evenodd">
        <g id="valo_landing" transform="translate(-60.000000, -47.000000)" fill="#000000" fill-rule="nonzero">
            <path d="M70.2182182,59 L66.3703704,67 L76.028028,67 L76.028028,71 L64.4444444,71 L60,71 L65.7737738,59 L70.2182182,59 Z M75.991992,63 L72.012012,63 L73.9499499,59 L75.991992,59 C78.2033423,59 79.995996,57.209139 79.995996,55 C79.995996,52.790861 78.2033423,51 75.991992,51 L75.991992,47 C80.4146927,47 84,50.581722 84,55 C84,59.418278 80.4146927,63 75.991992,63 Z M60,47 L72.008008,47 L72.008008,51 L60,51 L60,47 Z" id="valo_logo"></path>
        </g>
    </g>
</svg>