<?xml version="1.0" encoding="UTF-8"?>
<svg width="26px" height="26px" viewBox="0 0 26 26" version="1.1" xmlns="http://www.w3.org/2000/svg" xmlns:xlink="http://www.w3.org/1999/xlink">
    <!-- Generator: sketchtool 51.3 (57544) - http://www.bohemiancoding.com/sketch -->
    <title>2F9D08C8-F924-455E-BE52-CD4B09A42D85</title>
    <desc>Created with sketchtool.</desc>
    <defs></defs>
    <g id="Page-1" stroke="none" stroke-width="1" fill="none" fill-rule="evenodd">
        <g id="21_inch" transform="translate(-80.000000, -50.000000)" fill="#FFFFFF" fill-rule="nonzero">
            <path d="M91.0697364,63 L86.9012346,71.6666667 L97.363697,71.6666667 L97.363697,76 L84.8148148,76 L80,76 L86.2549216,63 L91.0697364,63 Z M97.324658,67.3333333 L93.013013,67.3333333 L95.1124458,63 L97.324658,63 C99.7202875,63 101.662329,61.0599006 101.662329,58.6666667 C101.662329,56.2734328 99.7202875,54.3333333 97.324658,54.3333333 L97.324658,50 C102.115917,50 106,53.8801988 106,58.6666667 C106,63.4531345 102.115917,67.3333333 97.324658,67.3333333 Z M80,50 L93.0086753,50 L93.0086753,54.3333333 L80,54.3333333 L80,50 Z" id="valo_logo"></path>
        </g>
    </g>
</svg>