<?xml version="1.0" encoding="UTF-8"?>
<svg width="24px" height="24px" viewBox="0 0 24 24" version="1.1" xmlns="http://www.w3.org/2000/svg" xmlns:xlink="http://www.w3.org/1999/xlink">
    <!-- Generator: sketchtool 51.3 (57544) - http://www.bohemiancoding.com/sketch -->
    <title>08BADB36-B8A1-4F18-9A94-95B261EA4934</title>
    <desc>Created with sketchtool.</desc>
    <defs></defs>
    <g id="Page-1" stroke="none" stroke-width="1" fill="none" fill-rule="evenodd">
        <g id="iPhone" transform="translate(-18.000000, -18.000000)" fill="#FFFFFF" fill-rule="nonzero">
            <g id="Group">
                <g id="CTA">
                    <path d="M28.2182182,30 L24.3703704,38 L34.028028,38 L34.028028,42 L22.4444444,42 L18,42 L23.7737738,30 L28.2182182,30 Z M33.991992,34 L30.012012,34 L31.9499499,30 L33.991992,30 C36.2033423,30 37.995996,28.209139 37.995996,26 C37.995996,23.790861 36.2033423,22 33.991992,22 L33.991992,18 C38.4146927,18 42,21.581722 42,26 C42,30.418278 38.4146927,34 33.991992,34 Z M18,18 L30.008008,18 L30.008008,22 L18,22 L18,18 Z" id="logo"></path>
                </g>
            </g>
        </g>
    </g>
</svg>