<?xml version="1.0" encoding="UTF-8"?>
<svg width="24px" height="11px" viewBox="0 0 24 11" version="1.1" xmlns="http://www.w3.org/2000/svg" xmlns:xlink="http://www.w3.org/1999/xlink">
    <!-- Generator: sketchtool 51.3 (57544) - http://www.bohemiancoding.com/sketch -->
    <title>FADBD8B2-30E0-435F-B998-EBD3E29CDA8B</title>
    <desc>Created with sketchtool.</desc>
    <defs></defs>
    <g id="Page-1" stroke="none" stroke-width="1" fill="none" fill-rule="evenodd">
        <g id="valo_landing" transform="translate(-935.000000, -1360.000000)" fill="#5969D4" fill-rule="nonzero">
            <g id="content" transform="translate(0.000000, 29.000000)">
                <g id="преимущества" transform="translate(0.000000, 985.000000)">
                    <g id="items" transform="translate(635.000000, 120.000000)">
                        <g id="item-3" transform="translate(300.000000, 226.000000)">
                            <g id="icon">
                                <path d="M21.2676923,0 C19.9138462,0 18.8061538,0.948275862 18.6092308,2.18103448 L14.5476923,2.18103448 L14.5476923,0 L9.13230769,0 L9.13230769,2.18103448 L5.36615385,2.18103448 C5.14461538,0.948275862 4.03692308,0 2.70769231,0 C1.20615385,0 0,1.16163793 0,2.60775862 C0,4.05387931 1.20615385,5.21551724 2.70769231,5.21551724 C3.84,5.21551724 4.8,4.55172414 5.21846154,3.60344828 L6.76923077,3.60344828 C4.13538462,5.12068966 2.38769231,7.91810345 2.38769231,11 L3.86461538,11 C3.86461538,7.82327586 6.05538462,5.04956897 9.13230769,4.125 L9.13230769,5.21551724 L14.5476923,5.21551724 L14.5476923,4.125 C17.6246154,5.04956897 19.8153846,7.82327586 19.8153846,11 L21.2923077,11 C21.2923077,7.89439655 19.5446154,5.12068966 16.9353846,3.60344828 L18.7815385,3.60344828 C19.2,4.55172414 20.16,5.21551724 21.2923077,5.21551724 C22.7938462,5.21551724 24,4.05387931 24,2.60775862 C24,1.16163793 22.7692308,0 21.2676923,0 Z" id="professionalism_icon"></path>
                            </g>
                        </g>
                    </g>
                </g>
            </g>
        </g>
    </g>
</svg>