<?xml version="1.0" encoding="UTF-8"?>
<svg width="24px" height="24px" viewBox="0 0 24 24" version="1.1" xmlns="http://www.w3.org/2000/svg" xmlns:xlink="http://www.w3.org/1999/xlink">
    <!-- Generator: sketchtool 51.3 (57544) - http://www.bohemiancoding.com/sketch -->
    <title>3C8CDADF-F8CC-4A2C-83AE-293E916FDFB6</title>
    <desc>Created with sketchtool.</desc>
    <defs></defs>
    <g id="Page-1" stroke="none" stroke-width="1" fill="none" fill-rule="evenodd">
        <g id="valo_landing" transform="translate(-935.000000, -1571.000000)" fill="#5969D4" fill-rule="nonzero">
            <g id="content" transform="translate(0.000000, 29.000000)">
                <g id="преимущества" transform="translate(0.000000, 985.000000)">
                    <g id="items" transform="translate(635.000000, 120.000000)">
                        <g id="item-6" transform="translate(300.000000, 437.000000)">
                            <g id="icon">
                                <path d="M14.1176471,12 C14.1176471,13.1696471 13.1696471,14.1176471 12,14.1176471 C10.8303529,14.1176471 9.88235294,13.1696471 9.88235294,12 C9.88235294,10.8303529 10.8303529,9.88235294 12,9.88235294 C13.1696471,9.88235294 14.1176471,10.8303529 14.1176471,12 M12,16.2352941 C9.66141176,16.2352941 7.76470588,14.3385882 7.76470588,12 C7.76470588,9.66141176 9.66141176,7.76470588 12,7.76470588 C14.3385882,7.76470588 16.2352941,9.66141176 16.2352941,12 C16.2352941,14.3385882 14.3385882,16.2352941 12,16.2352941 M12,4.94117647 C8.10211765,4.94117647 4.94117647,8.10141176 4.94117647,12 C4.94117647,15.8985882 8.10211765,19.0588235 12,19.0588235 C15.8978824,19.0588235 19.0588235,15.8985882 19.0588235,12 C19.0588235,8.10141176 15.8978824,4.94117647 12,4.94117647 M12,21.1764706 C6.93176471,21.1764706 2.82352941,17.0682353 2.82352941,12 C2.82352941,6.93176471 6.93176471,2.82352941 12,2.82352941 C17.0682353,2.82352941 21.1764706,6.93176471 21.1764706,12 C21.1764706,17.0682353 17.0682353,21.1764706 12,21.1764706 M12,0 C5.37247059,0 0,5.37247059 0,12 C0,18.6275294 5.37247059,24 12,24 C18.6275294,24 24,18.6275294 24,12 C24,5.37247059 18.6275294,0 12,0" id="seo_icon"></path>
                            </g>
                        </g>
                    </g>
                </g>
            </g>
        </g>
    </g>
</svg>