<?xml version="1.0" encoding="UTF-8"?>
<svg width="22px" height="19px" viewBox="0 0 22 19" version="1.1" xmlns="http://www.w3.org/2000/svg" xmlns:xlink="http://www.w3.org/1999/xlink">
    <!-- Generator: sketchtool 51.3 (57544) - http://www.bohemiancoding.com/sketch -->
    <title>70629601-34D8-4DD6-A8E2-DDD2A81B0CA4</title>
    <desc>Created with sketchtool.</desc>
    <defs></defs>
    <g id="Page-1" stroke="none" stroke-width="1" fill="none" fill-rule="evenodd">
        <g id="valo_landing" transform="translate(-1129.000000, -4152.000000)" fill="#00AAF2" fill-rule="nonzero">
            <g id="content" transform="translate(0.000000, 29.000000)">
                <g id="заявка-2" transform="translate(135.000000, 3766.000000)">
                    <g id="textblock" transform="translate(715.000000, 0.000000)">
                        <g id="skype" transform="translate(0.000000, 336.000000)">
                            <path d="M300.112682,32.1596642 C299.76364,31.6823801 299.601877,31.0994551 299.602536,30.5103415 C299.602591,30.5069215 299.602591,30.5035015 299.602591,30.5000271 C299.602591,25.2533222 295.303361,21 290.000027,21 C288.839867,21 287.728213,21.2042789 286.698812,21.577605 C286.141915,21.7795495 285.531847,21.8183642 284.960903,21.6592514 C284.456573,21.5187044 283.917839,21.4594239 283.359735,21.4974243 C281.015324,21.6570256 279.127943,23.5578562 279.006456,25.8796218 C278.948456,26.9878199 279.284383,28.0158373 279.887318,28.8403358 C280.23636,29.3176199 280.398123,29.9005449 280.397409,30.4896585 C280.397409,30.4930785 280.397409,30.4964985 280.397409,30.4999729 C280.397409,35.7466778 284.696584,40 289.999973,40 C291.160188,40 292.271842,39.7957211 293.301188,39.422395 C293.858085,39.2204505 294.468153,39.1816358 295.039097,39.3407486 C295.543427,39.4812956 296.082106,39.5405761 296.640265,39.5025757 C298.984676,39.3429744 300.872002,37.4421981 300.993544,35.1204867 C301.051544,34.0122887 300.715617,32.984217 300.112682,32.1596642 Z M290.351538,28.7968525 C292.287755,29.2523679 295.213646,29.9407166 295.213646,33.1292154 C295.213646,34.6999317 294.431773,35.8981363 293.011957,36.5030472 C291.998799,36.9347309 290.852136,36.9929799 289.864054,36.9929799 C286.827652,36.9929799 284.909872,34.6571542 284.829703,34.5577019 C284.332452,33.9406852 284.434789,33.0415975 285.05852,32.5496561 C285.682087,32.0574976 286.590878,32.1590128 287.088239,32.7758667 C287.092684,32.7811324 288.239566,34.0842179 289.864054,34.1351926 C291.820245,34.1965903 292.267178,33.6207767 292.324958,33.1292697 C292.395579,32.5289731 291.855802,32.0882779 289.683086,31.5771192 C287.841469,31.1438069 285.058081,30.489007 285.058081,27.5525047 C285.058081,26.638054 285.43401,23.654377 290.271644,23.654377 C293.326265,23.654377 295.129307,26.033686 295.204592,26.134984 C295.67704,26.770838 295.539092,27.6652571 294.896375,28.1326069 C294.256457,28.597948 293.35809,28.464784 292.883831,27.8366386 C292.84981,27.7933725 291.817721,26.6573799 290.271644,26.5121644 C289.101771,26.4022349 287.946713,26.819587 287.946713,27.4361152 C287.946713,28.0893408 288.278415,28.3090912 290.351538,28.7968525 Z" id="skype_icon"></path>
                        </g>
                    </g>
                </g>
            </g>
        </g>
    </g>
</svg>